<?xml version="1.0" encoding="UTF-8" standalone="no"?>
<!DOCTYPE svg PUBLIC "-//W3C//DTD SVG 1.1//EN"
 "http://www.w3.org/Graphics/SVG/1.1/DTD/svg11.dtd">
<!-- Generated by graphviz version 2.43.0 (0)
 -->
<!-- Title: G Pages: 1 -->
<svg width="545pt" height="98pt"
 viewBox="0.00 0.00 545.00 98.00" xmlns="http://www.w3.org/2000/svg" xmlns:xlink="http://www.w3.org/1999/xlink">
<g id="graph0" class="graph" transform="scale(1 1) rotate(0) translate(4 94)">
<title>G</title>
<polygon fill="white" stroke="transparent" points="-4,4 -4,-94 541,-94 541,4 -4,4"/>
<!-- aws_eip.lb -->
<g id="node1" class="node">
<title>aws_eip.lb</title>
<polygon fill="none" stroke="black" points="285,-36 196,-36 196,0 285,0 285,-36"/>
<text text-anchor="middle" x="240.5" y="-14.3" font-family="sans-serif" font-size="14.00">aws_eip.lb</text>
</g>
<!-- aws_instance.myec2 -->
<g id="node2" class="node">
<title>aws_instance.myec2</title>
<polygon fill="none" stroke="black" points="160,-36 0,-36 0,0 160,0 160,-36"/>
<text text-anchor="middle" x="80" y="-14.3" font-family="sans-serif" font-size="14.00">aws_instance.myec2</text>
</g>
<!-- aws_eip.lb&#45;&gt;aws_instance.myec2 -->
<g id="edge1" class="edge">
<title>aws_eip.lb&#45;&gt;aws_instance.myec2</title>
<path fill="none" stroke="black" d="M195.77,-18C187.71,-18 179.04,-18 170.2,-18"/>
<polygon fill="black" stroke="black" points="170.17,-14.5 160.17,-18 170.17,-21.5 170.17,-14.5"/>
</g>
<!-- aws_instance.myec2&#45;t -->
<g id="node3" class="node">
<title>aws_instance.myec2&#45;t</title>
<polygon fill="none" stroke="black" points="514,-90 344,-90 344,-54 514,-54 514,-90"/>
<text text-anchor="middle" x="429" y="-68.3" font-family="sans-serif" font-size="14.00">aws_instance.myec2&#45;t</text>
</g>
<!-- aws_security_group.allow_tls -->
<g id="node4" class="node">
<title>aws_security_group.allow_tls</title>
<polygon fill="none" stroke="black" points="537,-36 321,-36 321,0 537,0 537,-36"/>
<text text-anchor="middle" x="429" y="-14.3" font-family="sans-serif" font-size="14.00">aws_security_group.allow_tls</text>
</g>
<!-- aws_security_group.allow_tls&#45;&gt;aws_eip.lb -->
<g id="edge2" class="edge">
<title>aws_security_group.allow_tls&#45;&gt;aws_eip.lb</title>
<path fill="none" stroke="black" d="M320.86,-18C312.07,-18 303.45,-18 295.32,-18"/>
<polygon fill="black" stroke="black" points="295.31,-14.5 285.31,-18 295.31,-21.5 295.31,-14.5"/>
</g>
</g>
</svg>
